<?xml version="1.0" encoding="UTF-8"?>
<svg id="Camada_1" xmlns="http://www.w3.org/2000/svg" version="1.1" viewBox="0 0 482 420">
  <!-- Generator: Adobe Illustrator 29.0.1, SVG Export Plug-In . SVG Version: 2.1.0 Build 192)  -->
  <defs>
    <style>
      .st0 {
        fill: #fff;
      }
    </style>
  </defs>
  <path class="st0" d="M426.85,298.2c0-.08-.01-.15-.01-.23-.79-48.26-1.59-96.52-2.38-144.78,0-.24-.03-.47-.08-.7-.62-2.62-1.75-6-3.94-9.52-4.88-7.88-11.94-11.48-15.11-12.85-46.43-19.93-92.85-39.85-139.28-59.78-3.63-1.76-10.43-4.46-19.33-4.6-9.67-.15-17.02,2.81-20.72,4.6-45.3,19.67-133.29,57.8-136.7,59.24-2.05.87-8.96,4.47-11.65,6.77-2.13,1.82-3.23,3.18-4.07,4.96-.79,1.67-.1,3.65,1.58,4.41l166.86,75c1.17.52,1.92,1.69,1.92,2.96v155.43c0,.21.02.41.06.61.35,1.92,1.97,8.77,8.59,13.24,5.95,4.01,12.12,3.54,14.21,3.24.29-.04.57-.12.84-.23,47.76-20.41,95.52-40.82,143.27-61.23.27-.12.51-.26.74-.44,3-2.4,8.64-7.61,12.24-16.21,3.59-8.57,3.35-16.17,2.98-19.88ZM250.74,197.88c-.94.39-1.99.38-2.92-.03l-130.02-57.28c-2.99-1.32-2.95-5.58.07-6.84l130.84-54.34c.93-.39,1.99-.38,2.91.03l130.86,57.03c3.01,1.31,2.97,5.59-.06,6.85l-131.67,54.58ZM408.73,220.48l-64.11,90.11c-2.52,3.54-6.53,5.73-10.87,5.92-.21,0-.42.01-.63.01-4.12,0-8.04-1.8-10.73-4.94l-33.4-39c-5.07-5.92-4.38-14.84,1.54-19.91,5.92-5.07,14.84-4.38,19.91,1.54l21.64,25.28,53.63-75.39c4.52-6.35,13.34-7.84,19.69-3.32,6.36,4.52,7.84,13.34,3.32,19.69Z"/>
  <path class="st0" d="M237.87,225.49l-165.2-74.26c-1.52-.68-2.76-1.76-3.71-3.07-.03.03-.09.07-.12.09-.1.09-.18.18-.26.3l-31.94,46.46c-.52.64-3.34,4.2-2.78,9.3.57,5.2,4.22,8.11,5.13,8.77.09.06.17.11.27.15,47.61,21.49,95.21,42.98,142.82,64.47.03.01.06.03.09.04,1.44.78,9.73,5.05,19.59,1.66,9.46-3.25,13.41-11.15,14.17-12.8.03-.07.07-.13.11-.19l21.83-32.77v-8.16Z"/>
  <path class="st0" d="M455.64,94.63c-1.37-4.52-4.73-6.79-5.83-7.45-.13-.08-.26-.14-.4-.2-40.95-17.75-81.9-35.51-122.86-53.26-5.69-2.34-9.83-1.75-11.66-1.33-2.95.67-6.74,2.45-6.74,2.45,0,0,0,0,.02,0,.53,0-25.31,22.21-36.13,31.49l135.67,58.23c4.37,1.9,10.18,5.36,15.04,11.33,8.31-8.09,28.33-28.1,31.75-31.51.38-.38.65-.81.83-1.31.58-1.56,1.42-4.74.3-8.44Z"/>
  <path class="st0" d="M249.18,397.96c-8.24-5.56-10.55-13.85-11.16-17.15-.11-.57-.16-1.13-.16-1.71v-134.54l-16.61,24.94c-1.51,3.11-6.62,11.87-17.53,15.63-3.13,1.08-6.4,1.62-9.7,1.62-6.99,0-12.4-2.44-14.58-3.6l-100.81-45.51-11.05-4.99v68.42c-.27,3.46-.38,10.88,3.42,19.09,3.56,7.71,8.79,12.29,11.53,14.38,46.63,20.52,93.25,41.05,139.88,61.57,3.26,1.28,8.77,2.96,15.75,2.88,2.97-.04,7.22-.4,11.24-.91-.07-.05-.14-.08-.21-.13Z"/>
</svg>