<?xml version="1.0" encoding="UTF-8"?>
<svg id="Camada_1" xmlns="http://www.w3.org/2000/svg" version="1.1" viewBox="0 0 901.42 241">
  <!-- Generator: Adobe Illustrator 29.0.1, SVG Export Plug-In . SVG Version: 2.1.0 Build 192)  -->
  <defs>
    <style>
      .st0 {
        fill: #2563eb;
      }
    </style>
  </defs>
  <g>
    <path class="st0" d="M235.59,163.99s0-.09,0-.13c-.45-27.21-.9-54.42-1.34-81.64,0-.14-.02-.26-.05-.4-.35-1.48-.99-3.38-2.22-5.37-2.75-4.44-6.73-6.47-8.52-7.25-26.18-11.24-52.36-22.47-78.54-33.71-2.05-.99-5.88-2.52-10.9-2.59-5.45-.08-9.6,1.58-11.68,2.59-25.54,11.09-75.16,32.59-77.08,33.41-1.16.49-5.05,2.52-6.57,3.81-1.2,1.03-1.82,1.79-2.3,2.8-.45.94-.06,2.06.89,2.48l94.09,42.29c.66.3,1.08.95,1.08,1.67v87.64c0,.12.01.23.03.34.2,1.08,1.11,4.94,4.84,7.46,3.35,2.26,6.83,1.99,8.01,1.83.16-.02.32-.07.47-.13,26.93-11.51,53.86-23.02,80.79-34.53.15-.07.29-.14.42-.25,1.69-1.35,4.87-4.29,6.9-9.14,2.02-4.83,1.89-9.12,1.68-11.21ZM136.28,107.42c-.53.22-1.12.21-1.65-.02l-73.32-32.3c-1.69-.74-1.66-3.15.04-3.86l73.78-30.64c.53-.22,1.12-.21,1.64.01l73.79,32.16c1.7.74,1.67,3.15-.03,3.86l-74.25,30.78ZM225.37,120.16l-36.15,50.81c-1.42,2-3.68,3.23-6.13,3.34-.12,0-.24,0-.36,0-2.32,0-4.53-1.01-6.05-2.78l-18.83-21.99c-2.86-3.34-2.47-8.37.87-11.23,3.34-2.86,8.37-2.47,11.23.87l12.2,14.25,30.24-42.51c2.55-3.58,7.52-4.42,11.11-1.87,3.58,2.55,4.42,7.52,1.87,11.11Z"/>
    <path class="st0" d="M129.02,122.99l-93.15-41.87c-.86-.39-1.56-.99-2.09-1.73-.02.02-.05.04-.07.05-.06.05-.1.1-.15.17l-18.01,26.2c-.3.36-1.89,2.37-1.57,5.25.32,2.93,2.38,4.57,2.89,4.94.05.04.1.06.15.09,26.84,12.12,53.69,24.24,80.53,36.35.02,0,.03.01.05.02.81.44,5.48,2.85,11.05.94,5.33-1.83,7.56-6.29,7.99-7.22.02-.04.04-.07.06-.11l12.31-18.48v-4.6Z"/>
    <path class="st0" d="M251.82,49.2c-.77-2.55-2.67-3.83-3.29-4.2-.07-.04-.14-.08-.22-.11-23.09-10.01-46.18-20.02-69.28-30.03-3.21-1.32-5.55-.98-6.57-.75-1.66.38-3.8,1.38-3.8,1.38,0,0,0,0,0,0,.3,0-14.27,12.52-20.37,17.76l76.5,32.83c2.46,1.07,5.74,3.02,8.48,6.39,4.69-4.56,15.98-15.84,17.9-17.77.21-.21.37-.46.47-.74.33-.88.8-2.67.17-4.76Z"/>
    <path class="st0" d="M135.41,220.24c-4.65-3.14-5.95-7.81-6.29-9.67-.06-.32-.09-.64-.09-.96v-75.86l-9.37,14.06c-.85,1.76-3.73,6.7-9.88,8.81-1.77.61-3.61.92-5.47.92-3.94,0-6.99-1.38-8.22-2.03l-56.84-25.66-6.23-2.81v38.58c-.15,1.95-.21,6.13,1.93,10.77,2.01,4.35,4.96,6.93,6.5,8.11,26.29,11.57,52.58,23.15,78.87,34.72,1.84.72,4.94,1.67,8.88,1.62,1.68-.02,4.07-.23,6.34-.51-.04-.03-.08-.04-.12-.07Z"/>
  </g>
  <g>
    <path class="st0" d="M248.11,174.3l16.86-107.22c.12-.77.79-1.34,1.57-1.34h49.98c10.58,0,18.8,2.7,24.63,8.09,5.84,5.39,8.75,12.98,8.75,22.78,0,9-2.25,16.87-6.75,23.59-4.5,6.73-10.14,11.65-16.92,14.76-6.78,3.12-14.12,4.67-22.04,4.67h-14.96c-.78,0-1.45.57-1.57,1.35l-5.22,33.81c-.12.78-.79,1.35-1.57,1.35h-31.2c-.98,0-1.72-.87-1.57-1.84ZM294.79,96.02l-2.02,12.85c-.15.96.59,1.84,1.57,1.84h11.49c2.97,0,5.37-.89,7.2-2.67,1.83-1.78,2.74-4.16,2.74-7.12,0-4.15-2.37-6.23-7.12-6.23h-12.29c-.78,0-1.45.57-1.57,1.34Z"/>
    <path class="st0" d="M340.39,174.3l16.86-107.22c.12-.77.79-1.34,1.57-1.34h27.94c.98,0,1.72.87,1.57,1.84l-16.86,107.22c-.12.77-.79,1.34-1.57,1.34h-27.94c-.98,0-1.72-.87-1.57-1.84Z"/>
    <path class="st0" d="M422.87,174.31h0c.19-1.28-1.14-2.24-2.3-1.65l-3.32,1.7c-3.56,1.88-8.01,2.82-13.36,2.82-8.31,0-14.59-2.62-18.84-7.86s-5.69-12.07-4.3-20.48l7.95-50.59c.12-.77.79-1.34,1.57-1.34h27.49c.98,0,1.72.87,1.57,1.84l-7.57,47.42c-.49,3.46.99,5.19,4.45,5.19,1.48,0,3.21-.54,5.19-1.63l4.96-2.74c.43-.24.72-.66.8-1.14l7.53-47.6c.12-.77.79-1.34,1.57-1.34h27.2c.98,0,1.72.87,1.57,1.84l-11.96,76.06c-.12.77-.79,1.34-1.57,1.34h-27.06c-.97,0-1.72-.87-1.57-1.83Z"/>
    <path class="st0" d="M510.3,131.03c-.93,0-1.66-.8-1.58-1.73.05-.57.08-1.13.08-1.68,0-4.65-2.28-6.97-6.83-6.97-5.64,0-9,3.31-10.09,9.94l-1.93,12.46c-1.09,6.63,1.19,9.94,6.83,9.94,2.77,0,4.95-.79,6.53-2.37,1.39-1.39,2.4-3.63,3.03-6.7.15-.75.79-1.31,1.56-1.31h25.59c.98,0,1.74.89,1.58,1.85-1.87,10.94-6.25,19.15-13.14,24.63-7.27,5.79-16.74,8.68-28.41,8.68s-20.06-2.94-26.04-8.83c-5.99-5.89-8.19-13.87-6.6-23.96l2.82-17.95c1.58-10.09,6.03-17.81,13.35-23.15,7.32-5.34,16.72-8.01,28.19-8.01,10.19,0,18.2,2.3,24.04,6.9,5.82,4.58,8.73,11.25,8.75,20.01,0,.06,0,.12,0,.18l-.6,6.62c-.07.82-.76,1.45-1.58,1.45h-25.54Z"/>
    <path class="st0" d="M581.11,175.11l-8.27-21.84c-.4-1.06-1.74-1.37-2.57-.6l-4.24,3.95c-.26.24-.43.57-.49.92l-2.67,17.25c-.12.77-.79,1.35-1.57,1.35h-27.2c-.98,0-1.72-.87-1.57-1.84l16.86-107.22c.12-.77.79-1.34,1.57-1.34h27.2c.98,0,1.72.87,1.57,1.84l-7.19,45.47c-.25,1.56,1.68,2.48,2.74,1.32l15.55-16.96c.3-.33.73-.52,1.17-.52h33.48c1.41,0,2.12,1.7,1.13,2.71l-29.08,29.47c-.45.46-.58,1.15-.33,1.74l18.37,43.1c.45,1.05-.32,2.21-1.46,2.21h-31.51c-.66,0-1.25-.41-1.49-1.03Z"/>
    <path class="st0" d="M625.41,174.3l16.86-107.22c.12-.77.79-1.34,1.57-1.34h32.09c.98,0,1.72.87,1.57,1.84l-12.18,76.75c-.15.97.59,1.84,1.57,1.84h39.46c.97,0,1.72.87,1.57,1.83l-4.11,26.79c-.12.78-.79,1.35-1.57,1.35h-75.27c-.98,0-1.72-.87-1.57-1.84Z"/>
    <path class="st0" d="M788.19,146.76c-1.58,9.99-6.16,17.66-13.72,23-7.57,5.34-17.14,8.01-28.71,8.01s-20.6-2.94-26.78-8.83c-6.18-5.89-8.48-13.87-6.9-23.96l2.82-17.95c1.58-10.09,6.16-17.81,13.72-23.15,7.57-5.34,17.14-8.01,28.71-8.01s20.6,2.94,26.78,8.83c6.18,5.89,8.48,13.92,6.9,24.11l-2.82,17.96ZM761.93,130.59c.49-3.17.03-5.61-1.41-7.34s-3.59-2.6-6.45-2.6-5.29.87-7.27,2.6-3.21,4.18-3.71,7.34l-1.93,12.46c-.49,3.17-.05,5.61,1.34,7.35,1.38,1.73,3.51,2.6,6.38,2.6s5.32-.87,7.35-2.6c2.03-1.73,3.29-4.18,3.78-7.35l1.93-12.46Z"/>
    <path class="st0" d="M868.17,121.39c.1.49.15,1.04.15,1.63,0,8.11-2.84,14.57-8.53,19.36-5.69,4.8-12.98,7.2-21.89,7.2h-21.51c-2.47,0-3.71,1.19-3.71,3.56,0,1.48.89,2.23,2.67,2.23h25.97c8.9,0,15.46,1.78,19.66,5.34,4.2,3.56,6.31,8.41,6.31,14.54,0,9.79-3.81,17.14-11.42,22.03-7.62,4.9-17.76,7.34-30.42,7.34-5.14,0-9.79-.47-13.95-1.41s-7.94-2.45-11.35-4.53c-3.41-2.08-5.91-5.05-7.49-8.9-1.58-3.86-1.98-8.46-1.19-13.8l1.15-7.05c.1-.61-.14-1.25-.67-1.57-2.99-1.82-4.49-5.18-4.49-10.08,0-5.24,1.16-9.57,3.49-12.98,1.89-2.78,4.16-4.78,6.8-6.02.88-.41,1.15-1.48.65-2.31-1.36-2.23-2.03-5.41-2.03-9.55,0-9.4,3.34-16.67,10.02-21.81,6.68-5.14,15.21-7.72,25.6-7.72h46.07c.98,0,1.72.87,1.57,1.84l-3.36,21.3c-.12.77-.79,1.34-1.57,1.34h-6.51ZM820.24,174.06c-.77,0-1.43.55-1.57,1.31l-.21,1.21c-.49,2.67.12,4.62,1.85,5.86s4.38,1.85,7.94,1.85c7.91,0,11.87-1.98,11.87-5.94,0-2.87-2.08-4.3-6.23-4.3h-13.65ZM833.89,130.29c5.94,0,8.9-2.32,8.9-6.97,0-3.46-2.03-5.19-6.08-5.19h-4.3c-5.44,0-8.16,2.37-8.16,7.12,0,3.36,2.03,5.04,6.08,5.04h3.56Z"/>
  </g>
</svg>